HIERARCHY
ROOT Hips
{
	OFFSET 0.000000 0.000000 0.000000
	CHANNELS 6 Xposition Yposition Zposition Zrotation Yrotation Xrotation 
	JOINT LeftUpLeg_virtual
	{
		OFFSET 0.000000 0.000000 0.000000
		CHANNELS 3 Zrotation Yrotation Xrotation
		JOINT LeftUpLeg
		{
			OFFSET 8.479694 -4.795517 -0.379053
			CHANNELS 3 Zrotation Yrotation Xrotation
			JOINT LeftLeg
			{
				OFFSET 0.485052 -32.551468 0.112863
				CHANNELS 3 Zrotation Yrotation Xrotation
				JOINT LeftFoot
				{
					OFFSET 0.438033 -32.635670 -3.012641
					CHANNELS 3 Zrotation Yrotation Xrotation
					JOINT LeftToeBase
					{
						OFFSET 0.970169 -13.225353 11.864223
						CHANNELS 3 Zrotation Yrotation Xrotation
						End Site
						{
							OFFSET 0.000000 0.000000 0.000000
						}
					}
				}
			}
		}
	}
	JOINT RightUpLeg_virtual
	{
		OFFSET 0.000000 0.000000 0.000000
		CHANNELS 3 Zrotation Yrotation Xrotation
		JOINT RightUpLeg
		{
			OFFSET -8.479694 -4.795517 -0.379053
			CHANNELS 3 Zrotation Yrotation Xrotation
			JOINT RightLeg
			{
				OFFSET -0.484100 -32.551483 0.112903
				CHANNELS 3 Zrotation Yrotation Xrotation
				JOINT RightFoot
				{
					OFFSET -0.438985 -32.635651 -3.012681
					CHANNELS 3 Zrotation Yrotation Xrotation
					JOINT RightToeBase
					{
						OFFSET -0.970169 -13.225354 11.864223
						CHANNELS 3 Zrotation Yrotation Xrotation
						End Site
						{
							OFFSET 0.000000 0.000000 0.000000
						}
					}
				}
			}
		}
	}
	JOINT Spine_virtual
	{
		OFFSET 0.000000 0.000000 0.000000
		CHANNELS 3 Zrotation Yrotation Xrotation
		JOINT Spine
		{
			OFFSET 0.000000 7.722015 1.166203
			CHANNELS 3 Zrotation Yrotation Xrotation
			JOINT Spine1
			{
				OFFSET 0.000000 12.024086 0.248766
				CHANNELS 3 Zrotation Yrotation Xrotation
				JOINT Spine2
				{
					OFFSET -0.000000 11.503036 -0.491240
					CHANNELS 3 Zrotation Yrotation Xrotation
					JOINT Neck_virtual
					{
						OFFSET 0.000000 0.000000 0.000000
						CHANNELS 3 Zrotation Yrotation Xrotation
						JOINT Neck
						{
							OFFSET 0.000000 18.430687 -3.123054
							CHANNELS 3 Zrotation Yrotation Xrotation
							JOINT Head
							{
								OFFSET -0.000000 9.051071 1.034021
								CHANNELS 3 Zrotation Yrotation Xrotation
								End Site
								{
									OFFSET 0.000000 0.000000 0.000000
								}
							}
						}
					}
					JOINT LeftShoulder_virtual
					{
						OFFSET 0.000000 0.000000 0.000000
						CHANNELS 3 Zrotation Yrotation Xrotation
						JOINT LeftShoulder
						{
							OFFSET 6.197824 13.665230 -4.064723
							CHANNELS 3 Zrotation Yrotation Xrotation
							JOINT LeftArm
							{
								OFFSET 7.778132 -0.187073 -1.709282
								CHANNELS 3 Zrotation Yrotation Xrotation
								JOINT LeftForeArm
								{
									OFFSET 21.954697 0.000000 -2.041093
									CHANNELS 3 Zrotation Yrotation Xrotation
									JOINT LeftHand
									{
										OFFSET 22.992908 0.000000 -0.870901
										CHANNELS 3 Zrotation Yrotation Xrotation
										End Site
										{
											OFFSET 0.000000 0.000000 0.000000
										}
									}
								}
							}
						}
					}
					JOINT RightShoulder_virtual
					{
						OFFSET 0.000000 0.000000 0.000000
						CHANNELS 3 Zrotation Yrotation Xrotation
						JOINT RightShoulder
						{
							OFFSET -6.197824 13.665230 -4.064723
							CHANNELS 3 Zrotation Yrotation Xrotation
							JOINT RightArm
							{
								OFFSET -7.778132 -0.187073 -1.709282
								CHANNELS 3 Zrotation Yrotation Xrotation
								JOINT RightForeArm
								{
									OFFSET -21.954697 0.000000 -2.041093
									CHANNELS 3 Zrotation Yrotation Xrotation
									JOINT RightHand
									{
										OFFSET -22.992908 0.000000 -0.870901
										CHANNELS 3 Zrotation Yrotation Xrotation
										End Site
										{
											OFFSET 0.000000 0.000000 0.000000
										}
									}
								}
							}
						}
					}
				}
			}
		}
	}
}
MOTION
Frames: 6
Frame Time: 0.033333
23.998774 44.352787 21.556078 179.918070 -42.003905 179.261907 1.652285 -11.019346 56.094237 -16.352035 -6.050977 -114.019264 8.636708 -7.239061 133.913454 -9.428960 -8.886818 -24.534494 0.000000 0.000000 0.000000 6.716831 -7.754226 53.820675 -19.994675 -17.704914 -39.769053 5.584334 9.784512 68.514679 16.612915 5.962096 -21.962084 0.000000 0.000000 0.000000 9.813461 -9.292786 65.805273 -7.100751 -7.982410 28.863717 2.732024 2.208250 0.293631 -0.013160 -0.039366 -0.090260 2.821644 3.125107 10.056615 7.661747 1.568868 -22.756951 0.000000 0.000000 0.000000 4.380615 4.048796 6.218873 -7.980753 16.090503 -8.831511 -2.993632 -59.270783 -50.588380 176.775090 -68.108447 -129.246085 0.000000 0.000000 0.000000 -1.017374 6.177117 3.983906 4.882616 -8.382037 -14.615640 -21.675443 48.065093 -74.242722 -167.330400 64.864387 -166.311828 0.000000 0.000000 0.000000 
24.007874 44.359104 21.511190 179.925214 -42.137131 179.337641 1.824195 -11.030931 55.972068 -16.271385 -6.136096 -113.908998 8.638480 -7.245458 133.895941 -9.588386 -8.985949 -24.410550 0.000000 0.000000 0.000000 6.821641 -7.736893 53.719936 -19.934822 -17.719343 -39.602489 5.550101 9.700411 68.442225 16.627874 5.922883 -22.054042 0.000000 0.000000 0.000000 9.915001 -9.329744 65.745270 -7.057770 -8.057359 28.775454 2.696280 2.174819 0.439464 0.023256 -0.055245 -0.040305 2.692385 3.068139 10.186995 7.631247 1.624311 -22.684508 0.000000 0.000000 0.000000 4.272304 4.050243 6.147073 -8.018662 16.066099 -8.823380 -3.059365 -59.232282 -50.433669 176.618433 -68.372693 -129.290181 0.000000 0.000000 0.000000 -1.117799 5.983901 4.057692 4.849358 -8.221645 -14.686216 -21.804320 48.065885 -74.372858 -167.913958 65.500230 -167.022372 0.000000 0.000000 0.000000 
24.052645 44.363873 21.459352 179.976127 -42.094128 179.320073 1.947920 -10.978494 55.954405 -16.239294 -6.169049 -113.846542 8.505901 -7.115700 133.853198 -9.437698 -8.944469 -24.352981 0.000000 0.000000 0.000000 6.907096 -7.658363 53.677883 -19.902355 -17.776059 -39.525062 5.489196 9.686209 68.373090 16.698706 5.915516 -22.126818 0.000000 0.000000 0.000000 9.975246 -9.261679 65.926038 -7.109382 -8.082171 28.659337 2.592365 2.195109 0.486740 -0.011521 -0.052396 -0.054493 2.679901 3.113615 10.300419 7.634760 1.639125 -22.716731 0.000000 0.000000 0.000000 4.273905 4.086164 6.279550 -8.045134 16.006325 -8.816623 -3.185446 -59.089210 -50.228190 176.656750 -68.528715 -129.543649 0.000000 0.000000 0.000000 -1.137394 6.069280 4.192322 4.941260 -8.340477 -14.811866 -21.821689 48.099404 -74.454430 -168.464758 65.910280 -167.660640 0.000000 0.000000 0.000000 
24.119213 44.358715 21.417561 179.997970 -42.153776 179.286728 2.012743 -10.933311 55.996626 -16.188491 -6.200778 -113.835184 8.328920 -7.046118 133.854386 -9.248635 -8.921951 -24.362112 0.000000 0.000000 0.000000 6.959933 -7.669853 53.703069 -19.831017 -17.861713 -39.473528 5.413740 9.627930 68.325155 16.778501 5.943350 -22.269446 0.000000 0.000000 0.000000 9.988300 -9.288442 66.194007 -7.106372 -8.130866 28.508207 2.544866 2.188076 0.533233 0.004803 -0.062494 -0.059002 2.610306 3.107565 10.374595 7.633257 1.652546 -22.638846 0.000000 0.000000 0.000000 4.192921 4.070579 6.329168 -8.021673 15.900032 -8.706927 -3.098167 -58.756156 -50.194401 176.793627 -68.606983 -129.888382 0.000000 0.000000 0.000000 -1.198228 6.072830 4.248244 5.037966 -8.339105 -14.879639 -21.747271 48.301858 -74.627262 -169.030503 66.292860 -168.373343 0.000000 0.000000 0.000000 
24.167572 44.342934 21.395515 179.896487 -42.225585 179.306358 1.953859 -10.851592 56.052306 -16.078926 -6.194910 -113.843366 8.254742 -7.017768 133.883169 -9.248107 -8.969229 -24.412387 0.000000 0.000000 0.000000 6.944262 -7.675676 53.763882 -19.799064 -17.961765 -39.410622 5.371863 9.568429 68.308305 16.813358 5.996347 -22.430604 0.000000 0.000000 0.000000 9.971528 -9.360084 66.462371 -7.084534 -8.220088 28.312703 2.520968 2.174663 0.576691 -0.010126 -0.045417 -0.064057 2.587112 3.144656 10.369557 7.586514 1.720225 -22.524376 0.000000 0.000000 0.000000 4.107552 4.076280 6.351071 -7.974205 15.578859 -8.616709 -2.802408 -58.296156 -50.314066 177.169547 -68.609155 -130.460493 0.000000 0.000000 0.000000 -1.220767 6.025905 4.198569 5.101999 -8.380068 -14.988201 -21.619360 48.601536 -74.933247 -169.609320 66.570200 -169.115484 0.000000 0.000000 0.000000 
24.188629 44.329414 21.388506 179.974993 -42.356493 179.232729 2.025179 -10.777093 56.059628 -15.948196 -6.146753 -113.838073 8.286430 -7.091513 133.923672 -9.434726 -9.051555 -24.456221 0.000000 0.000000 0.000000 7.038086 -7.665051 53.783430 -19.719388 -17.995009 -39.338440 5.271526 9.521737 68.264742 16.790494 6.027142 -22.503568 0.000000 0.000000 0.000000 9.958464 -9.408550 66.669798 -7.047654 -8.309521 28.151842 2.543267 2.200854 0.601283 0.016146 -0.016823 -0.090869 2.511437 3.168218 10.487645 7.547066 1.729867 -22.457669 0.000000 0.000000 0.000000 4.082107 4.036873 6.383977 -7.992066 15.385930 -8.524147 -2.844230 -57.922968 -50.185027 177.693436 -68.489640 -131.185831 0.000000 0.000000 0.000000 -1.272254 6.015291 4.265191 5.151376 -8.416637 -14.958693 -21.755307 48.786918 -75.501826 -170.054006 66.766260 -169.748287 0.000000 0.000000 0.000000 
